<svg width="51" height="50" viewBox="0 0 51 50" fill="none" xmlns="http://www.w3.org/2000/svg">
<path d="M22.9434 28.6211C22.9419 28.6234 22.9404 28.6253 22.9385 28.6276C22.9404 28.6257 22.9419 28.6234 22.9434 28.6211Z" fill="#26AD85"/>
<path d="M26.8339 37.298C26.2205 36.7998 25.3805 36.8925 24.9277 37.483C24.9273 37.4834 24.9265 37.4845 24.9261 37.4849L23.1828 39.7356C22.6991 40.3474 22.8372 41.1493 23.3827 41.5926C23.9491 42.0462 24.7845 41.9561 25.2431 41.3897C25.2004 41.4431 26.9334 39.2874 27.0349 39.1611C27.49 38.5924 27.3996 37.7561 26.8339 37.298Z" fill="#26AD85"/>
<path d="M23.0116 28.5283C22.9918 28.5558 22.9689 28.5863 22.9434 28.621C22.9651 28.5913 22.9884 28.5596 23.0116 28.5283Z" fill="#26AD85"/>
<path d="M23.9394 34.7183C23.3371 34.2502 22.4158 34.3303 21.9126 34.9769L20.1583 37.2356C19.67 37.8677 19.7814 38.7787 20.4066 39.2658C21.0494 39.7685 21.9527 39.6377 22.4356 39.0167L24.1888 36.7595C24.6931 36.1046 24.5566 35.2046 23.9394 34.7183Z" fill="#26AD85"/>
<path d="M29.247 39.849C28.7728 39.4931 28.0568 39.5751 27.6803 40.0496L26.3527 41.6946C26.1555 41.9418 26.0689 42.2511 26.1101 42.5636C26.1502 42.871 26.3096 43.1415 26.5587 43.3261L26.6514 43.4047C27.1248 43.7553 27.8401 43.65 28.2143 43.1461L29.4713 41.4627L29.4747 41.4581C29.4819 41.4482 29.4865 41.4375 29.4934 41.4276C29.4976 41.4207 29.5014 41.4138 29.5056 41.407C29.834 40.9275 29.7528 40.2251 29.247 39.849Z" fill="#26AD85"/>
<path d="M9.3936 3.01074L2.67017 10.0378H9.3936V3.01074Z" fill="#26AD85"/>
<path d="M29.7413 44.9279L29.8146 44.9763C30.3547 45.3292 31.0909 45.1739 31.4495 44.62C31.4163 44.6715 32.0416 43.6995 32.0747 43.6481C32.4135 43.1323 32.2964 42.3693 31.7234 42.0021C31.3118 41.7381 30.7136 41.7465 30.3078 42.1066C30.2059 42.2244 29.7894 42.7635 29.4224 43.246C29.0257 43.7999 29.1764 44.5613 29.7413 44.9279Z" fill="#26AD85"/>
<path d="M32.3809 45.0717L32.3138 45.1762C31.6367 46.2202 30.2607 46.4953 29.2498 45.8334L29.1781 45.7858C28.6921 45.4707 28.3614 44.9843 28.2343 44.4178C26.9129 45.0457 25.9668 44.147 25.9158 44.1256C25.4797 43.8048 25.1811 43.2982 25.0983 42.7233C24.2297 43.0751 23.3618 42.89 22.7393 42.3922C22.1923 41.9478 21.8524 41.283 21.8642 40.523C21.0433 40.7164 20.3311 40.5085 19.7764 40.0755C18.7072 39.2428 18.5141 37.6871 19.3469 36.6076L20.2494 35.4459V33.9987C20.2494 33.748 20.1342 33.5142 19.9404 33.3738L19.6196 33.132C19.1798 33.7183 18.3749 33.8037 17.8187 33.3715L15.3671 31.4329C14.8292 30.9976 14.7308 30.2312 15.1386 29.6835L21.0574 21.641C21.2585 21.3671 21.569 21.1836 21.9089 21.1386C22.253 21.0955 22.5913 21.1859 22.861 21.4003L25.3223 23.3427C25.7648 23.6899 25.9063 24.2724 25.7155 24.7794L25.9791 25.0056C26.0818 25.0964 26.2157 25.1456 26.353 25.1456H29.5882L30.0052 24.7458C30.7536 24.0237 31.8168 23.68 32.8528 23.8329L35.4735 24.2201L35.4724 3.79043C35.4724 2.9386 34.7789 2.24512 33.9271 2.24512H10.4232V10.5523C10.4232 10.8362 10.1935 11.0658 9.90972 11.0658H1.98315V46.2035C1.98315 47.0553 2.67667 47.7488 3.52847 47.7488H33.9279C34.7797 47.7488 35.4732 47.0553 35.4732 46.2035V44.6384C35.4194 44.7059 35.3725 44.778 35.3107 44.8398C34.5329 45.6168 33.2912 45.732 32.3814 45.0713L32.3809 45.0717ZM32.466 22.7035H26.8416C26.5577 22.7035 26.3281 22.4738 26.3281 22.19C26.3281 21.9062 26.5577 21.6766 26.8416 21.6766H32.466C32.7498 21.6766 32.9794 21.9062 32.9794 22.19C32.9794 22.4738 32.7498 22.7035 32.466 22.7035ZM32.466 17.0863H27.2928C27.009 17.0863 26.7794 16.8566 26.7794 16.5728C26.7794 16.289 27.009 16.0594 27.2928 16.0594L32.466 16.0598C32.7498 16.0598 32.9794 16.2894 32.9794 16.5732C32.9794 16.8567 32.7498 17.0863 32.466 17.0863ZM14.0275 4.82555H32.466C32.7498 4.82555 32.9794 5.0552 32.9794 5.33901C32.9794 5.62282 32.7498 5.85247 32.466 5.85247H14.0275C13.7437 5.85247 13.514 5.62282 13.514 5.33901C13.514 5.0552 13.7437 4.82555 14.0275 4.82555ZM14.0275 10.443H32.466C32.7498 10.443 32.9794 10.6727 32.9794 10.9565C32.9794 11.2403 32.7498 11.4699 32.466 11.4699H14.0275C13.7437 11.4699 13.514 11.2403 13.514 10.9565C13.514 10.6727 13.7437 10.443 14.0275 10.443ZM4.98891 16.0602H22.9459C23.2298 16.0602 23.4594 16.2899 23.4594 16.5737C23.4594 16.8575 23.2298 17.0871 22.9459 17.0871L4.98891 17.0868C4.70511 17.0868 4.47546 16.8571 4.47546 16.5733C4.47546 16.2895 4.70511 16.0602 4.98891 16.0602ZM4.98891 21.677H18.2438C18.5276 21.677 18.7573 21.9067 18.7573 22.1905C18.7573 22.4743 18.5276 22.7039 18.2438 22.7039H4.98891C4.70511 22.7039 4.47546 22.4743 4.47546 22.1905C4.47546 21.9067 4.70511 21.677 4.98891 21.677ZM4.98891 27.2945H9.61499C9.8988 27.2945 10.1284 27.5241 10.1284 27.808C10.1284 28.0918 9.8988 28.3214 9.61499 28.3214L4.98891 28.321C4.70511 28.321 4.47546 28.0914 4.47546 27.8076C4.47546 27.5241 4.70511 27.2945 4.98891 27.2945ZM4.98891 32.9113H12.9529C13.2367 32.9113 13.4663 33.1409 13.4663 33.4248C13.4663 33.7086 13.2367 33.9382 12.9529 33.9382H4.98891C4.70511 33.9382 4.47546 33.7086 4.47546 33.4248C4.47546 33.1409 4.70511 32.9113 4.98891 32.9113ZM4.98891 38.5281H18.0192C18.303 38.5281 18.5326 38.7577 18.5326 39.0416C18.5326 39.3254 18.303 39.555 18.0192 39.555H4.98891C4.70511 39.555 4.47546 39.3254 4.47546 39.0416C4.47546 38.7577 4.70511 38.5281 4.98891 38.5281ZM21.7975 45.1717H4.98891C4.70511 45.1717 4.47546 44.9421 4.47546 44.6583C4.47546 44.3745 4.70511 44.1448 4.98891 44.1448H21.7965C22.0803 44.1448 22.31 44.3745 22.31 44.6583C22.31 44.9421 22.0803 45.1717 21.7969 45.1717H21.7975Z" fill="#26AD85"/>
<path d="M22.9384 28.6279C22.9091 28.668 22.8766 28.7122 22.8416 28.7595C22.8728 28.7168 22.9049 28.6737 22.9384 28.6279Z" fill="#26AD85"/>
<path d="M22.0751 22.1543C22.0629 22.1543 22.0522 22.1547 22.0431 22.1562C22.0049 22.1612 21.9336 22.1799 21.8836 22.2489L15.9624 30.2945C15.8846 30.3986 15.9056 30.5486 16.0071 30.631L18.4507 32.5631C18.5629 32.6512 18.7151 32.6279 18.7971 32.5173C19.1545 32.0321 24.1556 25.2339 24.7358 24.4664C24.8006 24.376 24.7838 24.2261 24.6858 24.1494L22.2215 22.2047C22.1693 22.1639 22.1148 22.1543 22.0751 22.1543Z" fill="#26AD85"/>
<path d="M44.4131 33.8936C44.4158 33.8997 44.4169 33.9027 44.418 33.9061C44.4169 33.9027 44.415 33.8985 44.4131 33.8936Z" fill="#26AD85"/>
<path d="M44.4072 33.8805C44.3995 33.8614 44.3927 33.8443 44.3873 33.8313C44.3885 33.834 44.3896 33.8366 44.3904 33.8393C44.3873 33.8321 44.3839 33.8237 44.3805 33.8149C44.3812 33.8168 44.3816 33.8179 44.3824 33.8195C44.3774 33.8069 44.3732 33.7966 44.3702 33.7897V33.7901C44.3702 33.7897 44.3698 33.789 44.3694 33.7886C44.3664 33.7813 44.3645 33.7764 44.3633 33.7741C44.1726 33.3037 43.4138 31.4334 40.821 25.0426C40.3846 25.2341 39.7288 25.8765 38.565 25.7152L32.701 24.8488C31.9785 24.7432 31.2369 24.9816 30.7147 25.4863L30.1497 26.0276C30.1489 26.0283 30.1486 26.0291 30.1478 26.0299L28.0009 28.0864C27.8579 28.2241 27.8281 28.3832 27.8281 28.4915C27.8281 28.667 27.9128 28.8947 28.1516 29.0069C29.214 29.5146 30.4675 29.4891 31.504 28.9417L32.0723 28.646C32.9516 28.1844 34.0235 28.2882 34.8003 28.9127L35.0829 29.1358L40.3213 33.3343C41.143 33.9767 42.1226 34.2288 43.0789 34.1003L44.4201 33.9137C44.4159 33.9034 44.4133 33.8973 44.4098 33.8882C44.4106 33.8901 44.4114 33.892 44.4121 33.8939C44.4114 33.8908 44.4087 33.8847 44.4072 33.8805Z" fill="#26AD85"/>
<path d="M44.418 33.9062C44.4222 33.9162 44.4229 33.9177 44.418 33.9062V33.9062Z" fill="#26AD85"/>
<path d="M22.8419 28.7588C22.8389 28.7626 22.8358 28.7672 22.8328 28.771C22.8358 28.7668 22.8389 28.763 22.8419 28.7588Z" fill="#26AD85"/>
<path d="M44.37 33.7903C44.3643 33.7758 44.3613 33.7685 44.3636 33.7746C44.3655 33.7788 44.3678 33.7853 44.3697 33.7891C44.37 33.7895 44.37 33.7895 44.37 33.7903Z" fill="#26AD85"/>
<path d="M49.1964 32.4194L45.1143 22.3344C45.0822 22.2532 45.0266 22.2169 44.9854 22.2002C44.9251 22.175 44.8579 22.1773 44.7965 22.2047L41.6101 23.6211C41.4869 23.6726 41.4312 23.8138 41.4789 23.9324C41.2347 23.332 45.0655 32.7665 45.5938 34.0662C45.6495 34.1528 45.7754 34.1894 45.8822 34.1417L49.074 32.7303C49.19 32.6784 49.2453 32.5411 49.1964 32.4194Z" fill="#26AD85"/>
<path d="M22.0996 29.7656C22.0878 29.7816 22.0779 29.7954 22.0684 29.8083C22.0779 29.795 22.0882 29.7813 22.0996 29.7656Z" fill="#26AD85"/>
<path d="M22.8331 28.7715C22.5966 29.0927 22.2617 29.547 22.1003 29.766C22.2148 29.6108 22.4433 29.3006 22.8331 28.7715Z" fill="#26AD85"/>
<path d="M39.6845 34.1398L34.1605 29.7159C33.6989 29.344 33.0676 29.2818 32.5484 29.5561L31.9808 29.8513C30.6605 30.5483 29.0637 30.5815 27.7109 29.9345C27.1509 29.6701 26.8015 29.1166 26.8015 28.4914C26.8015 28.0566 26.9751 27.6503 27.2898 27.3462L28.5143 26.1724H26.3506C25.9604 26.1724 25.5881 26.0332 25.3016 25.7799L25.1391 25.6406C24.1801 26.9418 23.4934 27.8733 23.0109 28.5287C23.2932 28.1461 22.9499 28.6119 20.2273 32.3064L20.5493 32.5487C21.0005 32.8771 21.2737 33.4207 21.2737 33.9987V34.1471C21.3034 34.1162 21.3385 34.0921 21.3698 34.0628C22.2418 33.2491 23.5927 33.1484 24.5715 33.9098C25.1765 34.3866 25.5225 35.0996 25.5225 35.8667C25.5225 35.9072 25.5213 35.948 25.5194 35.988C25.5763 35.977 25.6327 35.9686 25.6903 35.9613C26.3281 35.8869 26.9461 36.0678 27.4417 36.4698C28.0997 37.0024 28.4217 37.8282 28.3317 38.6137C28.8161 38.5614 29.4078 38.6892 29.8587 39.0257C30.4435 39.4598 30.7487 40.1395 30.7269 40.8105C32.64 40.5073 33.9714 42.6316 32.9334 44.2083L32.9528 44.2224C33.4281 44.5844 34.1552 44.5398 34.5817 44.1137C35.1307 43.5647 35.0395 42.6935 34.4585 42.2472L31.3652 39.8324C31.1432 39.6573 31.1046 39.335 31.2789 39.1126C31.4529 38.8906 31.7752 38.8494 31.9988 39.0249L35.538 41.7798C35.9813 42.1197 36.6134 42.0778 37.0071 41.6829C37.4957 41.1935 37.4298 40.3832 36.8678 39.9804L36.8675 39.98H36.8671C36.8644 39.9781 36.8621 39.9758 36.8595 39.9747L33.2782 37.4142C33.0474 37.2494 32.9944 36.9282 33.1596 36.6978C33.3244 36.4678 33.6448 36.414 33.876 36.5788L37.6258 39.2602H37.6262C38.1976 39.6691 39.0006 39.5692 39.4542 39.0305C39.9604 38.4305 39.8582 37.5226 39.2165 37.053L35.2801 34.1325C35.052 33.9639 35.0039 33.6427 35.1729 33.4145C35.3419 33.186 35.6627 33.1372 35.8908 33.3073L40.2373 36.5236C40.7145 36.873 41.4142 36.82 41.8483 36.3961C42.179 36.0654 42.2885 35.5729 42.1462 35.1327C41.2459 35.0281 40.4792 34.7607 39.6846 34.1397L39.6845 34.1398Z" fill="#26AD85"/>
<path d="M22.0684 29.8086C21.9784 29.9307 21.9933 29.9101 22.0684 29.8086V29.8086Z" fill="#26AD85"/>
</svg>
