<svg width="51" height="51" viewBox="0 0 51 51" fill="none" xmlns="http://www.w3.org/2000/svg">
<g clip-path="url(#clip0_25_1522)">
<mask id="mask0_25_1522" style="mask-type:luminance" maskUnits="userSpaceOnUse" x="7" y="1" width="37" height="50">
<path d="M7.83496 1.37207H43.3818V50.5723H7.83496V1.37207Z" fill="white"/>
</mask>
<g mask="url(#mask0_25_1522)">
<path d="M27.9912 34.3539H30.0141V36.233H27.3534V37.6422H30.0141V39.5217H27.3534V42.1649H23.8404V39.5217H21.2021V37.6422H23.8404V36.233H21.2021V34.3539H23.2174L17.4455 25.8392H21.5772L25.6852 32.3898L29.7097 25.8392H33.7701L27.9912 34.3539ZM43.3535 38.4623C43.3535 43.4832 41.5621 46.823 37.8771 48.6733C34.553 50.3422 30.0158 50.5722 25.6085 50.5722C21.201 50.5722 16.6646 50.3418 13.339 48.6733C9.65444 46.8228 7.86304 43.483 7.86304 38.4623C7.86304 33.2637 9.79253 26.8305 12.8992 21.6743C15.2159 17.8286 17.9052 15.0943 20.7475 13.6276L16.2817 5.84329C15.4703 4.13167 17.2109 3.51898 17.6355 3.43167C18.2134 3.31265 18.9603 3.22644 19.8248 3.12726C21.5639 2.92698 23.9447 2.65271 25.1466 1.98702C29.3115 0.123156 33.7167 3.06202 34.1806 3.36446C34.7006 3.70398 35.6565 4.63478 35.0115 5.709L30.4693 13.6279C33.3105 15.0947 35.9998 17.8291 38.3168 21.6746C41.4235 26.8302 43.353 33.2625 43.353 38.4617L43.3535 38.4623ZM26.3916 7.1723C25.555 7.82117 23.0205 9.05677 19.863 7.75175L22.1923 11.8117H29.0237L32.2075 6.26288C32.1396 6.26174 27.6935 6.16255 26.3916 7.1723ZM19.522 5.33402C20.5646 5.76737 23.1273 7.15091 24.8245 5.68954C26.2809 4.43564 28.5209 4.087 30.4851 4.07821C29.5799 3.79669 27.3879 2.92812 25.7594 3.94432C24.2316 4.89799 22.0969 5.03719 20.0725 5.27029C19.8986 5.28975 19.712 5.31151 19.522 5.33402ZM41.1968 38.4619C41.1968 33.6329 39.3852 27.627 36.4701 22.7871C34.2102 19.0373 31.5404 16.4319 28.8327 15.2532C27.9789 15.4466 27.2076 15.5671 26.5167 15.6339C25.7801 16.0119 22.5296 17.8399 21.3467 21.2014L19.312 20.4854C20.0986 18.2504 21.5691 16.5964 22.9104 15.4691C22.6663 15.4127 22.4622 15.3516 22.2951 15.294C19.6179 16.4911 16.982 19.0786 14.7469 22.7876C11.8317 27.6269 10.0202 33.6323 10.0202 38.4624C10.0202 42.6452 11.3824 45.2777 14.3071 46.7456C17.2307 48.2131 21.4662 48.416 25.6089 48.416C29.7508 48.416 33.9867 48.2138 36.9106 46.7456C39.8349 45.2769 41.1975 42.6452 41.1975 38.462L41.1968 38.4619Z" fill="#2CC295"/>
</g>
</g>
<defs>
<clipPath id="clip0_25_1522">
<rect width="50" height="50" fill="white" transform="translate(0.608398 0.972656)"/>
</clipPath>
</defs>
</svg>
