<svg width="50" height="50" viewBox="0 0 50 50" fill="none" xmlns="http://www.w3.org/2000/svg">
<mask id="mask0_25_1456" style="mask-type:luminance" maskUnits="userSpaceOnUse" x="4" y="0" width="41" height="50">
<path d="M4.29688 0.399414H44.9219V49.5996H4.29688V0.399414Z" fill="white"/>
</mask>
<g mask="url(#mask0_25_1456)">
<path fill-rule="evenodd" clip-rule="evenodd" d="M41.662 48.0116H25.7919V40.0576C36.5839 39.6258 45.0468 30.638 44.8309 19.8389C44.615 9.04004 35.7997 0.397461 24.9979 0.397461C14.1962 0.397461 5.38075 9.04004 5.16493 19.8389C4.94902 30.6377 13.4115 39.6231 24.204 40.0576V48.0116H5.16103C4.72195 48.0116 4.36719 48.3668 4.36719 48.8055C4.36719 49.2445 4.72233 49.5993 5.16103 49.5993H41.66C42.0991 49.5993 42.4539 49.2442 42.4539 48.8055C42.4539 48.3664 42.0987 48.0116 41.66 48.0116H41.662ZM6.74892 20.2392C6.74892 10.2626 14.7583 2.13369 24.7323 1.98916C34.7059 1.84268 42.9501 9.73447 43.2411 19.706C43.5314 29.6776 35.7594 38.0341 25.7929 38.4687V33.2635L30.3217 28.7347C30.6215 28.423 30.6192 27.9286 30.3121 27.6216C30.005 27.3145 29.511 27.3122 29.199 27.612L25.7929 31.0182V21.8241C25.7929 21.385 25.4377 21.0302 24.9991 21.0302C24.56 21.0302 24.2052 21.3854 24.2052 21.8241V28.6364L19.2133 23.6421C18.9017 23.3423 18.4073 23.3446 18.1002 23.6517C17.7932 23.9587 17.7886 24.4527 18.0907 24.7647L24.2049 30.8816V38.4687C14.4492 38.0345 6.7615 30.0034 6.74881 20.2382L6.74892 20.2392Z" fill="#26AD85"/>
</g>
<path fill-rule="evenodd" clip-rule="evenodd" d="M31.3476 27.3826C31.5585 27.3826 31.7603 27.2987 31.9087 27.1499L32.7025 26.3561C33.0024 26.0444 32.9974 25.5501 32.693 25.243C32.3859 24.9359 31.8919 24.9314 31.5799 25.2335L30.7861 26.0273C30.5606 26.2528 30.4912 26.5957 30.6133 26.891C30.7357 27.1885 31.026 27.3804 31.3472 27.3804L31.3476 27.3826Z" fill="#26AD85"/>
<mask id="mask1_25_1456" style="mask-type:luminance" maskUnits="userSpaceOnUse" x="43" y="47" width="3" height="3">
<path d="M43.1641 47.9492H45.7031V49.5998H43.1641V47.9492Z" fill="white"/>
</mask>
<g mask="url(#mask1_25_1456)">
<path fill-rule="evenodd" clip-rule="evenodd" d="M44.836 48.0117H44.0421C43.6031 48.0117 43.2483 48.3669 43.2483 48.8056C43.2483 49.2446 43.6034 49.5994 44.0421 49.5994H44.836C45.275 49.5994 45.6298 49.2442 45.6298 48.8056C45.6298 48.3665 45.2747 48.0117 44.836 48.0117Z" fill="#26AD85"/>
</g>
</svg>
