<svg width="38" height="49" viewBox="0 0 38 49" fill="none" xmlns="http://www.w3.org/2000/svg">
<path d="M36.3618 2.04074C36.2088 1.43915 36.0619 1.12139 35.8521 0.994741C34.5223 0.190981 32.9404 1.71686 31.9104 2.3924C30.0213 3.63253 27.995 4.6171 26.2159 6.03009C22.9211 8.64738 19.9525 12.3728 19.8564 16.7606H19.856C19.8263 18.938 20.7426 21.0212 22.368 22.4708L19.6641 25.5482V25.5485C19.0419 26.2565 18.1302 26.6407 17.1891 26.5923L15.0617 26.4836C15.0647 25.2724 14.6928 24.0902 13.9966 23.0992C11.4744 19.4635 6.0319 18.7233 1.94098 18.5601C1.52403 18.5433 1.2921 18.5769 1.16965 18.6879C0.39717 19.3906 1.07657 20.7025 1.31423 21.4952C1.75102 22.9494 1.99706 24.4439 2.56579 25.8599C3.62019 28.4844 5.45007 31.1112 8.25847 32.0138H8.25809C9.33455 32.3464 10.4908 32.3129 11.5456 31.9177C12.6004 31.5225 13.4945 30.7882 14.0869 29.8303C14.2711 29.5274 14.4321 29.2108 14.5683 28.8835L15.6776 29.3416H15.6772C16.2418 29.5747 16.724 29.9699 17.0634 30.4773C17.403 30.9846 17.5841 31.5816 17.5841 32.192V36.8959H11.2903C10.5811 36.8948 10.0002 37.4586 9.97955 38.167C9.97879 38.505 10.1127 38.8292 10.3515 39.0684C10.5903 39.3072 10.9142 39.4415 11.2521 39.4415H11.7831L12.9242 48.2378H25.6624L26.8035 39.4415H27.2975H27.2971C28.0062 39.4423 28.5872 38.8788 28.6078 38.17C28.6086 37.832 28.4747 37.5078 28.2359 37.269C27.9971 37.0298 27.6732 36.8955 27.3352 36.8959H21.0146V30.1206C21.0146 29.5911 21.1508 29.0708 21.4106 28.6096L24.1828 23.6848C24.2018 23.6932 24.2209 23.7027 24.2396 23.7111C24.5829 22.7814 24.9598 21.8648 25.371 20.9611C25.9753 19.6309 26.6722 18.345 27.4577 17.1132C28.2408 15.8845 29.1327 14.7291 30.1222 13.6598C31.0164 12.6974 32.0013 11.8234 33.0633 11.0495C33.235 10.9232 33.4753 10.9503 33.6146 11.1116C33.7542 11.2734 33.7454 11.5152 33.5947 11.6663C32.7101 12.5437 31.9121 13.505 31.2124 14.5361C30.4525 15.6576 29.7952 16.8459 29.2493 18.0861C28.3605 20.1327 27.6926 22.2682 27.2569 24.4562C30.2305 24.7351 33.1437 23.4957 35.0054 21.1603C39.1203 16.0208 37.8644 7.9455 36.3615 2.0412L36.3618 2.04074Z" fill="#2CC295"/>
</svg>
